<mxfile host="65bd71144e">
    <diagram id="WHN7KJUo0XjJs8HCU2_Z" name="Page-1">
        <mxGraphModel dx="468" dy="609" grid="1" gridSize="10" guides="1" tooltips="1" connect="1" arrows="1" fold="1" page="1" pageScale="1" pageWidth="827" pageHeight="1169" math="0" shadow="0">
            <root>
                <mxCell id="0"/>
                <mxCell id="1" parent="0"/>
            </root>
        </mxGraphModel>
    </diagram>
</mxfile>